<svg width="512" height="512" viewBox="0 0 512 512" fill="none" xmlns="http://www.w3.org/2000/svg">
  <rect width="512" height="512" rx="112" fill="#06080D"/>
  <rect x="17" y="17" width="478" height="478" rx="95" stroke="#232A37" stroke-width="2"/>
  <g opacity="0.92" stroke="#2B3240" stroke-width="2">
    <path d="M80 80V432"/>
    <path d="M128 80V432"/>
    <path d="M176 80V432"/>
    <path d="M224 80V432"/>
    <path d="M272 80V432"/>
    <path d="M320 80V432"/>
    <path d="M368 80V432"/>
    <path d="M416 80V432"/>
    <path d="M80 80H432"/>
    <path d="M80 128H432"/>
    <path d="M80 176H432"/>
    <path d="M80 224H432"/>
    <path d="M80 272H432"/>
    <path d="M80 320H432"/>
    <path d="M80 368H432"/>
    <path d="M80 416H432"/>
  </g>
  <g filter="url(#glow)">
    <rect x="196" y="196" width="120" height="120" rx="10" fill="url(#core)"/>
  </g>
  <defs>
    <filter id="glow" x="142" y="142" width="228" height="228" filterUnits="userSpaceOnUse" color-interpolation-filters="sRGB">
      <feFlood flood-opacity="0" result="BackgroundImageFix"/>
      <feBlend mode="normal" in="SourceGraphic" in2="BackgroundImageFix" result="shape"/>
      <feGaussianBlur stdDeviation="22" result="effect1_foregroundBlur_1_2"/>
    </filter>
    <linearGradient id="core" x1="256" y1="196" x2="256" y2="316" gradientUnits="userSpaceOnUse">
      <stop stop-color="#22C7FF"/>
      <stop offset="1" stop-color="#0FA9E6"/>
    </linearGradient>
  </defs>
</svg>
